<svg width="48" height="52" viewBox="0 0 48 52" fill="none" xmlns="http://www.w3.org/2000/svg">
<path d="M4.91453 9.50332C5.15061 9.50433 5.65661 9.5023 5.89744 9.50332C6.06237 9.50329 6.21897 9.50334 6.38889 9.50332C6.93668 9.50345 6.43084 9.50187 6.97864 9.50332C7.35739 9.50366 9.25373 9.50314 9.63248 9.50332C10.6314 9.50403 11.5823 9.50126 12.5812 9.50332C13.5997 9.50522 14.6097 9.50237 15.6282 9.50332C17.6282 9.50531 19.624 9.49942 21.6239 9.50332L19.5598 10.3407C16.0214 11.9223 14.81 13.5417 13.3675 16.109C13.2806 16.2635 13.1937 16.4179 13.1041 16.5771C10.7137 21.4122 11.0086 28.4831 12.6256 33.4377C13.9258 36.7772 15.963 39.3568 19.3829 40.9217C22.6668 42.2372 26.1717 42.3044 29.5306 41.1355C32.3244 39.9984 34.199 38.4098 35.4289 35.7581C35.6883 35.0826 36.0019 34.203 36.2692 33.5071C39.9669 33.5071 43.5663 33.5071 47.3761 33.5071C46.9401 36.8092 45.5945 40.0469 43.4445 42.7179C43.3255 42.8677 43.2068 43.0176 43.0843 43.1721C39.6088 47.4222 35.1615 49.6423 29.6891 50.7764C29.4927 50.819 29.2963 50.8615 29.094 50.9052C22.6068 51.8356 16.2686 50.7591 11.0201 47.5754C9.78299 46.7484 8.66689 45.7849 7.56455 44.8047C7.43606 44.6994 7.30759 44.5941 7.17522 44.4856C2.39835 40.3742 0.403196 33.8205 0.0442582 27.9429C-0.218846 21.6682 0.616974 15.1411 4.56562 9.89362C4.73702 9.66586 4.91453 9.50332 4.91453 9.50332Z" fill="white"/>
<path d="M22.2578 0.0133505C26.8484 -0.072692 31.0597 0.217513 35.2862 2.06022C42.2293 5.08736 47.376 10.9592 47.376 18.0627C43.6783 18.0627 40.0789 18.0627 36.2691 18.0627L35.9743 16.6671C34.8931 11.9222 29.5854 9.31712 25.8503 9.31712C24.2285 9.31712 23.9288 9.31712 22.2578 9.31712C22.2578 6.18547 22.2578 3.23991 22.2578 0.0133505Z" fill="white"/>
</svg>
