<svg width="1045" height="276" viewBox="0 0 1045 276" fill="none" xmlns="http://www.w3.org/2000/svg">
<path d="M633.225 4.16943C649.395 4.16943 665.565 4.16943 682.225 4.16943C687.405 11.076 692.364 17.759 697.081 24.9312C699.484 28.5603 701.941 32.1488 704.413 35.7319C705.357 37.1017 706.301 38.4715 707.245 39.8413C707.73 40.5458 708.216 41.2503 708.716 41.9761C711.351 45.8062 713.976 49.6442 716.6 53.4819C717.413 54.6709 717.413 54.6709 718.243 55.8838C720.459 59.1243 722.675 62.3652 724.891 65.606C730.938 74.4483 736.989 83.287 743.062 92.1116C747.182 98.1012 751.286 104.102 755.389 110.103C758.827 115.13 762.273 120.152 765.725 125.169C770.284 131.795 774.831 138.429 779.365 145.072C782.033 148.98 784.713 152.877 787.424 156.755C787.928 157.479 788.952 158.949 788.952 158.949L791 162.072L798.5 173.169C799.49 173.169 799.205 173.169 800.225 173.169C800.225 117.399 800.225 61.6294 800.225 4.16943C819.035 4.16943 837.845 4.16943 857.225 4.16943C857.225 92.6094 857.225 181.049 857.225 272.169C840.725 272.169 824.225 272.169 807.225 272.169C800.79 262.764 800.79 262.764 794.225 253.169C791.522 249.269 788.817 245.372 786.1 241.482C779.343 231.787 772.634 222.06 765.953 212.313C759.385 202.734 752.767 193.19 746.129 183.659C741.88 177.556 737.652 171.44 733.448 165.306C729.4 159.409 725.313 153.539 721.225 147.669C716.605 141.035 711.99 134.396 707.413 127.732C706.985 127.11 706.557 126.488 706.116 125.847C703.791 122.463 701.479 119.07 699.178 115.669C698.674 114.927 698.17 114.186 697.65 113.421C696.68 111.994 695.714 110.563 694.751 109.131C692.51 105.599 692.51 105.599 689.225 103.169C689.225 158.939 689.225 214.709 689.225 272.169C670.745 272.169 652.265 272.169 633.225 272.169C633.225 183.729 633.225 95.2894 633.225 4.16943Z" fill="white"/>
<path d="M353.225 4.16943C443.315 4.16943 533.405 4.16943 626.225 4.16943C626.225 92.6094 626.225 181.049 626.225 272.169C607.415 272.169 588.605 272.169 569.225 272.169C569.225 199.239 569.225 126.309 569.225 51.1694C543.485 51.1694 517.745 51.1694 491.225 51.1694C491.225 124.099 491.225 197.029 491.225 272.169C472.745 272.169 454.265 272.169 435.225 272.169C435.225 199.239 435.225 126.309 435.225 51.1694C408.165 51.1694 381.105 51.1694 353.225 51.1694C353.225 35.6594 353.225 20.1494 353.225 4.16943Z" fill="white"/>
<path d="M863.225 4.16943C922.955 4.16943 982.685 4.16943 1044.23 4.16943C1044.23 19.6794 1044.23 35.1894 1044.23 51.1694C1003.31 51.1694 962.385 51.1694 920.225 51.1694C920.225 72.2894 920.225 93.4094 920.225 115.169C957.845 115.169 995.465 115.169 1034.23 115.169C1034.23 130.679 1034.23 146.189 1034.23 162.169C996.605 162.169 958.985 162.169 920.225 162.169C920.225 182.959 920.225 203.749 920.225 225.169C961.145 225.169 1002.07 225.169 1044.23 225.169C1044.23 240.679 1044.23 256.189 1044.23 272.169C984.495 272.169 924.765 272.169 863.225 272.169C863.225 183.729 863.225 95.2894 863.225 4.16943Z" fill="white"/>
<path d="M25 51.0718C26.2009 51.0772 28.7749 51.0663 30 51.0718C30.839 51.0716 31.6356 51.0719 32.5 51.0718C35.2866 51.0725 32.7134 51.064 35.5 51.0718C37.4267 51.0736 47.0733 51.0708 49 51.0718C54.0816 51.0756 58.9184 51.0607 64 51.0718C69.1812 51.082 74.3188 51.0667 79.5 51.0718C89.6738 51.0825 99.8262 51.0508 110 51.0718L99.5 55.5718C81.5 64.0718 75.3376 72.7747 68 86.5718C67.5579 87.4019 67.1157 88.2321 66.6602 89.0874C54.5 115.072 56 153.072 64.2261 179.699C70.8398 197.646 81.2032 211.509 98.6001 219.919C115.305 226.989 133.134 227.35 150.221 221.068C164.433 214.957 173.969 206.42 180.225 192.169C181.545 188.539 183.14 183.812 184.5 180.072C203.31 180.072 221.62 180.072 241 180.072C238.782 197.818 231.937 215.218 221 229.572C220.395 230.377 219.791 231.183 219.168 232.013C201.488 254.854 178.865 266.785 151.027 272.88C150.028 273.109 149.029 273.337 148 273.572C115 278.572 82.7576 272.787 56.0586 255.677C49.7656 251.233 44.0881 246.055 38.4805 240.787C37.8269 240.221 37.1734 239.655 36.5 239.072C12.2003 216.977 2.05104 181.756 0.225141 150.169C-1.11326 116.448 3.13852 81.3701 23.2251 53.1693C24.097 51.9453 25 51.0718 25 51.0718Z" fill="white"/>
<path d="M113.225 0.0717773C136.577 -0.390629 158 1.16898 179.5 11.072C214.819 27.3403 241 58.8963 241 97.0717C222.19 97.0717 203.88 97.0717 184.5 97.0717L183 89.5718C177.5 64.0718 150.5 50.0717 131.5 50.0717C123.25 50.0717 121.725 50.0717 113.225 50.0717C113.225 33.2417 113.225 17.4118 113.225 0.0717773Z" fill="white"/>
<path d="M249 138.072C289.26 138.072 329.52 138.072 371 138.072C371 152.592 371 167.112 371 182.072C330.74 182.072 290.48 182.072 249 182.072C249 167.552 249 153.032 249 138.072Z" fill="white"/>
</svg>